<?xml version="1.0" standalone="no"?>
<!DOCTYPE svg PUBLIC "-//W3C//DTD SVG 20010904//EN"
 "http://www.w3.org/TR/2001/REC-SVG-20010904/DTD/svg10.dtd">
<svg version="1.0" xmlns="http://www.w3.org/2000/svg"
 width="1600.000000pt" height="1600.000000pt" viewBox="0 0 1600.000000 1600.000000"
 preserveAspectRatio="xMidYMid meet">
<metadata>
Created by potrace 1.14, written by Peter Selinger 2001-2017
</metadata>
<g transform="translate(0.000000,1600.000000) scale(0.100000,-0.100000)"
fill="#000000" stroke="none">
<path d="M7940 12368 c-3 -3 -142 -9 -310 -13 -168 -4 -320 -8 -339 -10 -19
-2 -91 -6 -160 -9 -69 -3 -169 -10 -221 -16 -52 -5 -149 -14 -215 -20 -588
-54 -1436 -199 -1980 -340 -212 -55 -640 -178 -775 -224 -103 -34 -503 -177
-535 -191 -16 -7 -61 -25 -100 -41 -317 -124 -875 -395 -1120 -543 -66 -40
-124 -73 -129 -74 -5 -1 -16 -8 -25 -15 -9 -7 -87 -59 -173 -116 l-157 -102
-22 20 c-12 12 -19 15 -15 9 4 -8 2 -13 -6 -13 -10 0 -9 -3 2 -9 8 -6 18 -7
22 -5 4 3 8 1 8 -3 0 -5 -37 -35 -82 -68 -176 -127 -373 -292 -562 -469 -33
-30 -64 -52 -70 -49 -6 3 -8 3 -4 -2 4 -4 -32 -51 -80 -104 -48 -53 -119 -132
-156 -176 -38 -44 -79 -92 -92 -107 -13 -15 -24 -31 -24 -34 0 -4 -12 -21 -27
-39 -29 -34 -101 -139 -178 -259 -95 -146 -227 -431 -292 -626 -82 -249 -112
-431 -120 -720 -8 -333 26 -577 123 -868 47 -140 65 -184 147 -352 76 -157
197 -354 306 -500 146 -195 416 -483 611 -650 41 -36 77 -68 80 -71 3 -3 40
-33 82 -66 43 -33 74 -64 70 -68 -4 -3 -2 -5 4 -3 11 3 49 -21 142 -93 86 -66
429 -289 527 -343 17 -9 37 -21 45 -26 26 -17 221 -121 347 -186 180 -92 444
-212 653 -296 183 -73 557 -209 695 -253 341 -106 910 -258 1105 -294 30 -5
150 -28 265 -50 584 -112 1193 -190 1695 -217 63 -3 131 -7 150 -9 19 -3 283
-7 585 -11 489 -6 1001 3 1210 21 28 3 115 9 195 15 437 32 1076 117 1465 195
38 8 97 19 130 25 254 44 513 106 950 226 254 70 357 101 580 179 323 113 531
191 630 235 164 74 246 110 249 110 6 0 234 107 286 134 25 13 104 54 175 91
154 80 333 181 428 242 37 24 69 43 71 43 5 0 189 123 312 207 161 111 390
295 535 432 42 39 83 71 90 71 7 0 10 2 7 5 -3 3 21 32 55 63 68 65 248 268
338 381 33 42 66 83 72 91 60 75 221 337 281 457 142 284 221 510 260 743 9
52 18 105 20 117 3 12 10 93 16 180 28 379 -42 805 -187 1136 -19 42 -31 83
-27 90 4 6 4 9 -1 5 -4 -4 -40 57 -80 136 -102 203 -237 402 -420 621 -108
129 -364 389 -463 470 -33 27 -58 53 -55 58 2 4 1 6 -4 5 -7 -2 -95 62 -113
83 -17 19 -270 203 -382 277 -399 266 -697 427 -1207 653 -275 123 -803 315
-1091 398 -563 162 -1022 265 -1580 355 -349 57 -823 114 -1090 131 -52 3
-124 8 -160 10 -243 18 -1179 43 -1190 33z"/>
<path d="M2443 11153 c0 -8 6 -9 19 -2 10 5 18 11 18 12 0 2 -8 3 -18 3 -10 0
-19 -6 -19 -13z"/>
<path d="M1320 10399 c0 -5 5 -7 10 -4 6 3 10 8 10 11 0 2 -4 4 -10 4 -5 0
-10 -5 -10 -11z"/>
<path d="M15956 8682 c-2 -4 -1 -14 5 -22 7 -12 9 -10 9 8 0 23 -5 28 -14 14z"/>
</g>
</svg>
